<?xml version="1.0" encoding="utf-8"?>
<!-- Generator: Adobe Illustrator 17.1.0, SVG Export Plug-In . SVG Version: 6.00 Build 0)  -->
<!DOCTYPE svg PUBLIC "-//W3C//DTD SVG 1.1//EN" "http://www.w3.org/Graphics/SVG/1.1/DTD/svg11.dtd">
<svg version="1.1" id="shop" xmlns="http://www.w3.org/2000/svg" xmlns:xlink="http://www.w3.org/1999/xlink" x="0px" y="0px"
	 viewBox="0 0 1010 1010" enable-background="new 0 0 1010 1010" xml:space="preserve">
<g id="shop-shop">
	<circle id="shop-label" fill="#FFB933" cx="505" cy="505" r="505"/>
	<g id="shop-shop_1_">
		<g>
			<path fill="#FC6E51" d="M722.8799,538.998c-20.6338,0-38.0322-17.4472-39.6309-39.7382l-0.7686-10.8203h80.7402l-0.7695,10.8203
				C760.8535,521.5508,743.4746,538.998,722.8799,538.998L722.8799,538.998z"/>
			<rect x="680.3203" y="357.8101" fill="#FC6E51" width="82.2295" height="130.6294"/>
			<rect x="592.8818" y="357.8101" fill="#FC6E51" width="87.4385" height="130.6294"/>
			<path fill="#FC6E51" d="M636.0732,538.998c-20.6044,0-37.9931-17.4472-39.6005-39.7382l-0.7793-10.8203h80.7997l-0.7891,10.8398
				C674.0762,521.5508,656.6582,538.998,636.0732,538.998L636.0732,538.998z"/>
			<rect x="505" y="357.8101" fill="#FC6E51" width="87.8818" height="130.6294"/>
			<path fill="#FC6E51" d="M549.3057,538.998c-20.6143,0-38.0127-17.457-39.6006-39.7382l-0.7696-10.8203h80.7305l-0.7793,10.8203
				C587.2793,521.5508,569.9004,538.998,549.3057,538.998L549.3057,538.998z"/>
			<rect x="417.9863" y="357.8101" fill="#FC6E51" width="87.0137" height="130.6294"/>
			<path fill="#FC6E51" d="M462.5488,538.998c-20.6245,0-38.0332-17.4472-39.6308-39.7382l-0.7696-10.8203h80.7608l-0.7696,10.8203
				C500.5225,521.5508,483.1431,538.998,462.5488,538.998L462.5488,538.998z"/>
			<rect x="330.5381" y="357.8101" fill="#FC6E51" width="87.4482" height="130.6294"/>
			<path fill="#FC6E51" d="M375.7617,538.998c-20.624,0-38.0234-17.457-39.6015-39.7382l-0.7691-10.8203h80.7603l-0.7788,10.83
				C413.7549,521.5508,396.356,538.998,375.7617,538.998L375.7617,538.998z"/>
			<rect x="363.5801" y="222.1504" fill="#FFFFFF" width="282.8301" height="94.7471"/>
			<rect x="247.4502" y="357.8101" fill="#FC6E51" width="83.0879" height="130.6294"/>
			<path fill="#FC6E51" d="M288.9746,538.998c-21.0976,0-40.1045-18.039-41.5049-39.4033l-0.0195-11.1552h81.9243l-0.7793,10.83
				C326.9873,521.5508,309.5791,538.998,288.9746,538.998L288.9746,538.998z"/>
			<path fill="#FFFFFF" d="M555.5,756.5137V583.9258h-101v172.5879H262.6001V531.7793l13.4731,4.7832
				c4.6358,1.6367,8.8575,2.4355,12.9014,2.4355c14.1436,0,27.3506-8.3339,34.4722-21.7382l8.9262-16.7969l8.9161,16.8066
				c7.1215,13.3946,20.3183,21.7285,34.4726,21.7285c14.1338,0,27.3311-8.3339,34.4522-21.7285l8.9262-16.7871l8.9263,16.7871
				c7.1211,13.3946,20.3379,21.7285,34.4824,21.7285c14.1241,0,27.3311-8.3339,34.4424-21.7285l8.936-16.8164l8.9166,16.8164
				c7.1015,13.3946,20.3183,21.7285,34.4619,21.7285c14.1342,0,27.3413-8.3339,34.4521-21.748l8.917-16.8262l8.9268,16.8164
				c7.1212,13.4239,20.3281,21.7578,34.4716,21.7578c14.1338,0,27.3506-8.3339,34.4717-21.7382l8.9268-16.7969l8.917,16.8066
				c7.1113,13.3946,20.3281,21.7285,34.4912,21.7285c3.4521,0,7.042-0.6406,11.2744-2.041l13.2461-4.3398v223.8965H555.5z"/>
			<rect x="454.5" y="583.9258" fill="#FFB933" width="101" height="172.5879"/>
			<rect x="242.4004" y="756.5137" fill="#ACAF48" width="525.1992" height="31.3359"/>
			<rect x="600.9502" y="585.7109" fill="#3BAFDA" width="111.0996" height="121.378"/>
			<rect x="297.9502" y="585.1484" fill="#3BAFDA" width="111.0996" height="122.502"/>
		</g>
		<g>
			<g>
				<polygon fill="#454545" points="272.7002,752.4502 252.5,752.4502 252.5,528.6426 272.7002,528.6426 272.7002,752.4502 				"/>
			</g>
			<g>
				<polygon fill="#454545" points="757.5,752.4502 737.2998,752.4502 737.2998,528.6426 757.5,528.6426 757.5,752.4502 				"/>
			</g>
			<g>
				<polyline fill="#BDC3C7" points="454.5,764.7598 454.5,583.9258 555.5,583.9258 555.5,764.7598 				"/>
				<polygon fill="#454545" points="565.6001,764.7598 545.4004,764.7598 545.4004,594.0254 464.6001,594.0254 464.6001,764.7598 
					444.4004,764.7598 444.4004,573.8262 565.6001,573.8262 565.6001,764.7598 				"/>
			</g>
			<g>
				<polygon fill="#454545" points="535.251,679.6787 515.0508,679.6787 515.0508,660.4648 535.251,660.4648 535.251,679.6787 				
					"/>
			</g>
			<g>
				<g>
					<polygon fill="#454545" points="772.6504,488.4395 752.4502,488.4395 752.4502,367.9102 257.5498,367.9102 257.5498,488.4395 
						237.3501,488.4395 237.3501,347.71 772.6504,347.71 772.6504,488.4395 					"/>
				</g>
				<g>
					<path fill="#454545" d="M722.8799,549.0986c-18.4639,0-34.8076-10.8994-43.4131-27.0947
						c-8.6152,16.1953-24.9492,27.0947-43.3936,27.0947c-18.4589,0-34.788-10.8994-43.3935-27.124
						c-8.6006,16.2246-24.9248,27.124-43.374,27.124c-18.4639,0-34.7925-10.8994-43.3936-27.0947
						c-8.6055,16.1953-24.9292,27.0947-43.3633,27.0947c-18.4643,0-34.7978-10.8896-43.4087-27.0947
						c-8.6108,16.2051-24.9389,27.0947-43.3784,27.0947c-18.4643,0-34.7929-10.8896-43.3935-27.0947
						c-8.606,16.2051-24.9395,27.0947-43.3936,27.0947c-26.7002,0-49.8491-22.2216-51.6045-49.5234l-0.02-21.2354h535.3003
						l-0.0791,20.6241C770.7656,527.3496,748.9492,549.0986,722.8799,549.0986L722.8799,549.0986z M693.3242,498.5391
						c1.2237,17.0439,14.1592,30.3593,29.5557,30.3593c15.3672,0,28.2783-13.3154,29.4912-30.3593H693.3242L693.3242,498.5391z
						 M606.5479,498.5391c1.2275,17.0537,14.1533,30.3593,29.5253,30.3593c15.3721,0,28.3077-13.3055,29.5557-30.3593H606.5479
						L606.5479,498.5391z M519.7803,498.5391c1.208,17.0439,14.1338,30.3593,29.5254,30.3593
						c15.3624,0,28.2783-13.3154,29.5063-30.3593H519.7803L519.7803,498.5391z M432.9932,498.5391
						c1.2231,17.0439,14.1587,30.3593,29.5556,30.3593c15.357,0,28.2725-13.3154,29.5157-30.3593H432.9932L432.9932,498.5391z
						 M346.2358,498.5391c1.2085,17.0439,14.1343,30.3593,29.5259,30.3593c15.3721,0,28.293-13.3154,29.5352-30.3593H346.2358
						L346.2358,498.5391z M257.5498,498.5391v0.3847c1.0459,15.9492,15.4463,29.9746,31.4248,29.9746
						c15.3867,0,28.3174-13.3055,29.5454-30.3593H257.5498L257.5498,498.5391z"/>
				</g>
				<g>
					<polygon fill="#454545" points="340.6387,498.4902 320.4385,498.4902 320.4385,357.8101 340.6387,357.8101 340.6387,498.4902 
											"/>
				</g>
				<g>
					<polygon fill="#454545" points="428.0859,498.4902 407.8862,498.4902 407.8862,357.8101 428.0859,357.8101 428.0859,498.4902 
											"/>
				</g>
				<g>
					<polygon fill="#454545" points="602.9824,498.4902 582.7822,498.4902 582.7822,357.8101 602.9824,357.8101 602.9824,498.4902 
											"/>
				</g>
				<g>
					<polygon fill="#454545" points="690.4199,498.4902 670.2197,498.4902 670.2197,357.8101 690.4199,357.8101 690.4199,498.4902 
											"/>
				</g>
				<g>
					<polygon fill="#454545" points="515.1001,498.4902 494.9004,498.4902 494.9004,357.8101 515.1001,357.8101 515.1001,498.4902 
											"/>
				</g>
			</g>
			<g>
				<path fill="#454545" d="M777.7002,797.9492H232.2998v-51.5352h545.4004V797.9492L777.7002,797.9492z M252.5,777.749h505
					v-11.1357h-505V777.749L252.5,777.749z"/>
			</g>
			<g>
				<path fill="#454545" d="M722.1504,717.1885H590.8496V575.6113h131.3008V717.1885L722.1504,717.1885z M611.0498,696.9883h90.9004
					V595.8105h-90.9004V696.9883L611.0498,696.9883z"/>
			</g>
			<g>
				<path fill="#454545" d="M419.1504,717.751H287.8501V575.0488h131.3003V717.751L419.1504,717.751z M308.0498,697.5508h90.9004
					V595.249h-90.9004V697.5508L308.0498,697.5508z"/>
			</g>
		</g>
		<g>
			<g>
				<polygon fill="#454545" points="428.0859,362.752 407.8862,362.752 407.8862,323.2002 428.0859,323.2002 428.0859,362.752 				
					"/>
			</g>
			<g>
				<polygon fill="#454545" points="602.9824,375.6035 582.7822,375.6035 582.7822,323.2002 602.9824,323.2002 602.9824,375.6035 
									"/>
			</g>
			<g>
				<path fill="#454545" d="M646.4102,326.9971H363.5801c-5.5772,0-10.0996-4.5274-10.0996-10.0996v-94.7471
					c0-5.5723,4.5224-10.0996,10.0996-10.0996h282.8301c5.5771,0,10.0995,4.5273,10.0995,10.0996v94.7471
					C656.5098,322.4697,651.9873,326.9971,646.4102,326.9971L646.4102,326.9971z M373.6807,306.7974h262.6298v-74.5469H373.6807
					V306.7974L373.6807,306.7974z"/>
			</g>
		</g>
		<g>
			<polygon fill="#454545" points="612.3125,277.75 397.6875,277.75 397.6875,257.5498 612.3125,257.5498 612.3125,277.75 			"/>
		</g>
	</g>
</g>
</svg>
